<svg width="257" height="44" viewBox="0 0 257 44" fill="none" xmlns="http://www.w3.org/2000/svg">
<g clip-path="url(#clip0_63_41)">
<path d="M249.294 0.000396729C251.127 0.000396729 252.71 0.20873 254.044 0.625397C255.419 1.04206 256.273 1.54206 256.606 2.1254C256.731 2.91706 256.794 3.77123 256.794 4.6879C256.794 5.5629 256.523 6.3754 255.981 7.1254C255.44 7.83373 254.669 8.1879 253.669 8.1879C252.794 8.1879 252.023 7.83373 251.356 7.1254C250.731 6.3754 250.106 5.64623 249.481 4.9379C248.898 4.22956 248.21 3.8754 247.419 3.8754C246.085 3.8754 245.106 4.83373 244.481 6.7504C243.856 8.66706 243.544 11.0212 243.544 13.8129V16.3754C243.544 16.5837 243.648 16.6879 243.856 16.6879H250.794C251.002 16.6879 251.106 16.8337 251.106 17.1254C251.106 18.2921 250.856 19.3754 250.356 20.3754H243.919C243.669 20.3754 243.544 20.5004 243.544 20.7504V34.1879C243.544 36.8546 243.69 38.7504 243.981 39.8754C244.065 40.1671 244.648 40.5004 245.731 40.8754C246.815 41.2504 247.544 41.4379 247.919 41.4379C248.044 41.4379 248.106 41.7921 248.106 42.5004C248.148 43.1671 248.127 43.5837 248.044 43.7504C247.585 43.7087 246.273 43.6254 244.106 43.5004C241.981 43.3337 240.44 43.2504 239.481 43.2504C238.481 43.2504 236.919 43.3337 234.794 43.5004C232.669 43.6254 231.377 43.7087 230.919 43.7504C230.752 43.5837 230.669 43.1671 230.669 42.5004C230.669 41.7921 230.752 41.4379 230.919 41.4379C231.377 41.4379 232.148 41.2504 233.231 40.8754C234.315 40.5004 234.898 40.1671 234.981 39.8754C235.273 38.6254 235.419 37.0421 235.419 35.1254V20.8129C235.419 20.5212 235.315 20.3754 235.106 20.3754H230.919C230.794 20.3754 230.731 20.2504 230.731 20.0004C230.731 19.4587 230.981 18.7712 231.481 17.9379C232.023 17.0629 232.648 16.6254 233.356 16.6254H235.106C235.315 16.6254 235.419 16.5004 235.419 16.2504V15.8129C235.419 11.4796 236.731 7.77123 239.356 4.6879C242.023 1.60456 245.335 0.0420634 249.294 0.000396729Z" fill="#484C44"/>
<path d="M211.106 39.4379C212.19 39.4379 213.023 39.1879 213.606 38.6879C214.231 38.1462 214.544 37.5004 214.544 36.7504V30.4379C214.46 30.4796 214.044 30.6254 213.294 30.8754C212.585 31.0837 212.127 31.2296 211.919 31.3129C211.71 31.3962 211.315 31.5629 210.731 31.8129C210.148 32.0212 209.731 32.2296 209.481 32.4379C209.273 32.6046 209.002 32.8337 208.669 33.1254C208.335 33.4171 208.106 33.7296 207.981 34.0629C207.856 34.3962 207.794 34.7712 207.794 35.1879C207.794 36.6879 208.106 37.7712 208.731 38.4379C209.398 39.1046 210.19 39.4379 211.106 39.4379ZM213.606 15.4379C216.523 15.4379 218.752 16.2504 220.294 17.8754C221.877 19.4587 222.669 22.3546 222.669 26.5629V36.6879C222.669 38.1046 223.169 38.8129 224.169 38.8129C224.877 38.8129 225.585 38.5421 226.294 38.0004C226.585 38.1671 226.731 38.4796 226.731 38.9379C226.731 39.9796 226.585 40.7504 226.294 41.2504C225.71 41.7921 224.752 42.3754 223.419 43.0004C222.127 43.5837 220.898 43.8754 219.731 43.8754C218.731 43.8754 217.773 43.5837 216.856 43.0004C215.94 42.3754 215.335 41.6671 215.044 40.8754C215.002 40.8754 214.835 41.0004 214.544 41.2504C214.252 41.4587 213.877 41.7087 213.419 42.0004C212.96 42.2921 212.419 42.5837 211.794 42.8754C211.21 43.1671 210.502 43.4171 209.669 43.6254C208.835 43.8337 208.002 43.9379 207.169 43.9379C204.877 43.9379 203.044 43.3129 201.669 42.0629C200.335 40.7712 199.669 39.1671 199.669 37.2504C199.669 36.1254 199.919 35.1046 200.419 34.1879C200.96 33.2296 201.565 32.4587 202.231 31.8754C202.94 31.2504 203.877 30.6879 205.044 30.1879C206.21 29.6462 207.21 29.2504 208.044 29.0004C208.877 28.7087 209.94 28.3962 211.231 28.0629C212.565 27.6879 213.481 27.4171 213.981 27.2504C214.356 27.1254 214.544 26.8129 214.544 26.3129V24.0629C214.544 20.6462 213.502 18.9379 211.419 18.9379C209.002 18.9379 207.794 20.3337 207.794 23.1254C207.794 24.0421 207.419 24.7296 206.669 25.1879C205.919 25.6046 205.085 25.8129 204.169 25.8129C202.252 25.8129 200.94 25.1879 200.231 23.9379C200.231 21.8129 201.627 19.8754 204.419 18.1254C207.252 16.3337 210.315 15.4379 213.606 15.4379Z" fill="#484C44"/>
<path d="M183.919 19.0004C182.294 19.0004 181.106 19.7921 180.356 21.3754C179.606 22.9171 179.231 24.4379 179.231 25.9379C179.231 26.1879 179.377 26.3129 179.669 26.3129H187.606C188.19 26.3129 188.481 25.9171 188.481 25.1254C188.481 23.5421 188.044 22.1254 187.169 20.8754C186.335 19.6254 185.252 19.0004 183.919 19.0004ZM184.231 15.5629C187.981 15.5629 190.981 16.8754 193.231 19.5004C195.523 22.0837 196.669 24.7296 196.669 27.4379C196.669 28.3962 196.46 29.0212 196.044 29.3129C195.669 29.6046 194.898 29.7504 193.731 29.7504H179.606C179.356 29.7504 179.231 29.8962 179.231 30.1879C179.231 32.4379 179.856 34.4587 181.106 36.2504C182.398 38.0421 184.231 38.9379 186.606 38.9379C187.981 38.9379 189.294 38.7504 190.544 38.3754C191.794 37.9587 192.669 37.6046 193.169 37.3129C193.669 36.9796 194.335 36.5004 195.169 35.8754C195.544 36.0421 195.731 36.4379 195.731 37.0629C195.731 37.5629 195.648 37.9796 195.481 38.3129C195.065 39.3129 193.815 40.5004 191.731 41.8754C189.648 43.2504 187.315 43.9379 184.731 43.9379C180.898 43.9379 177.585 42.5421 174.794 39.7504C172.044 36.9587 170.669 33.6046 170.669 29.6879C170.669 25.6879 171.919 22.3337 174.419 19.6254C176.919 16.9171 180.19 15.5629 184.231 15.5629Z" fill="#484C44"/>
<path d="M154.544 10.3129C154.544 8.35456 154.44 6.85456 154.231 5.8129C154.023 5.14623 152.94 4.8129 150.981 4.8129H150.419C150.169 4.8129 150.044 4.39623 150.044 3.5629C150.044 2.85456 150.169 2.5004 150.419 2.5004C151.71 2.3754 153.002 2.20873 154.294 2.0004C155.627 1.79206 156.752 1.58373 157.669 1.3754C158.585 1.16706 159.398 0.95873 160.106 0.750397C160.856 0.542063 161.44 0.375397 161.856 0.250397L162.481 0.0628967H162.606C162.773 0.0628967 162.94 0.187897 163.106 0.437897C163.273 0.687897 163.377 0.917063 163.419 1.1254C162.96 3.0004 162.731 5.10456 162.731 7.4379L162.669 34.1879C162.669 36.8546 162.815 38.7504 163.106 39.8754C163.19 40.1671 163.773 40.5004 164.856 40.8754C165.94 41.2504 166.669 41.4379 167.044 41.4379C167.169 41.4379 167.231 41.7921 167.231 42.5004C167.273 43.1671 167.252 43.5837 167.169 43.7504C166.71 43.7087 165.398 43.6254 163.231 43.5004C161.106 43.3337 159.565 43.2504 158.606 43.2504C157.606 43.2504 156.044 43.3337 153.919 43.5004C151.794 43.6254 150.502 43.7087 150.044 43.7504C149.877 43.5837 149.794 43.1671 149.794 42.5004C149.794 41.7921 149.877 41.4379 150.044 41.4379C150.502 41.4379 151.273 41.2504 152.356 40.8754C153.44 40.5004 154.023 40.1671 154.106 39.8754C154.398 38.6254 154.544 37.0421 154.544 35.1254V10.3129Z" fill="#484C44"/>
<path d="M138.356 19.6254C135.398 21.3337 132.544 23.6046 129.794 26.4379C131.002 27.7296 132.565 29.4796 134.481 31.6879C136.398 33.8962 137.981 35.7087 139.231 37.1254C140.523 38.5421 141.419 39.4379 141.919 39.8129C142.46 40.2712 143.169 40.6671 144.044 41.0004C144.919 41.2921 145.544 41.4379 145.919 41.4379C146.127 41.4379 146.231 41.8337 146.231 42.6254C146.231 43.1671 146.19 43.5212 146.106 43.6879C141.106 43.4379 138.481 43.3129 138.231 43.3129C137.231 43.3129 135.648 43.3754 133.481 43.5004C131.315 43.6671 130.127 43.7504 129.919 43.7504C129.752 43.5837 129.669 43.1671 129.669 42.5004C129.669 41.7921 129.752 41.4379 129.919 41.4379C130.335 41.4379 130.815 41.3546 131.356 41.1879C131.898 41.0212 132.169 40.8337 132.169 40.6254C132.169 40.5421 132.148 40.4796 132.106 40.4379L122.981 30.0004L122.294 30.1879V34.1879C122.294 36.8546 122.44 38.7504 122.731 39.8754C122.815 40.1671 123.398 40.5004 124.481 40.8754C125.565 41.2504 126.294 41.4379 126.669 41.4379C126.794 41.4379 126.856 41.7921 126.856 42.5004C126.898 43.1671 126.877 43.5837 126.794 43.7504C126.335 43.7087 125.023 43.6254 122.856 43.5004C120.731 43.3337 119.19 43.2504 118.231 43.2504C117.231 43.2504 115.669 43.3337 113.544 43.5004C111.419 43.6254 110.127 43.7087 109.669 43.7504C109.502 43.5837 109.419 43.1671 109.419 42.5004C109.419 41.7921 109.502 41.4379 109.669 41.4379C110.127 41.4379 110.898 41.2504 111.981 40.8754C113.065 40.5004 113.648 40.1671 113.731 39.8754C114.023 38.6254 114.169 37.0421 114.169 35.1254V10.3129C114.169 8.35456 114.065 6.85456 113.856 5.8129C113.648 5.14623 112.565 4.8129 110.606 4.8129H110.044C109.794 4.8129 109.669 4.39623 109.669 3.5629C109.669 2.85456 109.794 2.5004 110.044 2.5004C111.335 2.3754 112.627 2.20873 113.919 2.0004C115.252 1.79206 116.377 1.58373 117.294 1.3754C118.21 1.16706 119.023 0.95873 119.731 0.750397C120.481 0.542063 121.065 0.375397 121.481 0.250397L122.106 0.0628967H122.231C122.398 0.0628967 122.565 0.187897 122.731 0.437897C122.898 0.687897 123.002 0.917063 123.044 1.1254C122.544 3.0004 122.294 5.10456 122.294 7.4379V27.3129C123.419 27.0212 124.127 26.7504 124.419 26.5004C125.085 25.9171 125.794 25.3129 126.544 24.6879C127.335 24.0212 127.919 23.5212 128.294 23.1879C128.71 22.8129 129.148 22.4379 129.606 22.0629C130.106 21.6462 130.46 21.3337 130.669 21.1254C130.877 20.8754 131.085 20.6462 131.294 20.4379C131.502 20.1879 131.627 19.9796 131.669 19.8129C131.752 19.6046 131.794 19.4171 131.794 19.2504C131.794 18.8754 131.585 18.6254 131.169 18.5004C130.752 18.3754 130.294 18.3129 129.794 18.3129C129.294 18.2712 129.002 18.2296 128.919 18.1879C128.835 17.8962 128.794 17.4587 128.794 16.8754C128.794 16.2921 128.877 15.9796 129.044 15.9379C132.044 15.9796 134.419 16.0004 136.169 16.0004C138.627 16.0004 140.794 15.9587 142.669 15.8754C142.835 15.9587 142.919 16.2087 142.919 16.6254C142.96 17.0004 142.96 17.3546 142.919 17.6879C142.877 18.0212 142.815 18.1879 142.731 18.1879C141.44 18.1879 139.981 18.6671 138.356 19.6254Z" fill="#484C44"/>
<path d="M90.5438 19.0004C89.3355 19.0004 88.3355 19.4796 87.5438 20.4379C86.7522 21.3962 86.2313 22.5004 85.9813 23.7504C85.7313 24.9587 85.6063 26.3129 85.6063 27.8129C85.6063 36.2712 87.7522 40.5004 92.0438 40.5004C93.7938 40.5004 95.0647 39.6462 95.8563 37.9379C96.6897 36.2296 97.1063 34.2296 97.1063 31.9379C97.1063 23.3129 94.9188 19.0004 90.5438 19.0004ZM80.9813 19.6879C83.8563 16.9379 87.3355 15.5629 91.4188 15.5629C95.5022 15.5629 98.9605 16.9379 101.794 19.6879C104.669 22.4379 106.106 25.7921 106.106 29.7504C106.106 33.7087 104.69 37.0629 101.856 39.8129C99.023 42.5629 95.5438 43.9379 91.4188 43.9379C87.3355 43.9379 83.8563 42.5629 80.9813 39.8129C78.148 37.0629 76.7313 33.7087 76.7313 29.7504C76.7313 25.7921 78.148 22.4379 80.9813 19.6879Z" fill="#484C44"/>
<path d="M57.8563 19.0004C56.648 19.0004 55.648 19.4796 54.8563 20.4379C54.0647 21.3962 53.5438 22.5004 53.2938 23.7504C53.0438 24.9587 52.9188 26.3129 52.9188 27.8129C52.9188 36.2712 55.0647 40.5004 59.3563 40.5004C61.1063 40.5004 62.3772 39.6462 63.1688 37.9379C64.0022 36.2296 64.4188 34.2296 64.4188 31.9379C64.4188 23.3129 62.2313 19.0004 57.8563 19.0004ZM48.2938 19.6879C51.1688 16.9379 54.648 15.5629 58.7313 15.5629C62.8147 15.5629 66.273 16.9379 69.1063 19.6879C71.9813 22.4379 73.4188 25.7921 73.4188 29.7504C73.4188 33.7087 72.0022 37.0629 69.1688 39.8129C66.3355 42.5629 62.8563 43.9379 58.7313 43.9379C54.648 43.9379 51.1688 42.5629 48.2938 39.8129C45.4605 37.0629 44.0438 33.7087 44.0438 29.7504C44.0438 25.7921 45.4605 22.4379 48.2938 19.6879Z" fill="#484C44"/>
<path d="M19.2369 0.0121206C18.3438 0.0316419 18.0583 0.0414026 15.6133 0.134129C13.4049 0.217094 11.7724 0.239056 9.11021 0.221975C7.74128 0.214654 6.10636 0.197573 5.47436 0.185372C4.8448 0.173171 4.17619 0.168291 3.99318 0.175612L3.65888 0.190253L3.63935 0.3025C3.60519 0.495273 3.61495 1.36641 3.65155 1.40789C3.6906 1.4567 3.82237 1.4811 4.6203 1.58603C5.41336 1.69339 5.87455 1.78612 6.32354 1.93253C7.5363 2.33028 8.14147 3.0184 8.40012 4.29461C8.52945 4.92905 8.58314 5.48541 8.61242 6.52736C8.6417 7.64251 8.68074 10.7318 8.68318 12.2178C8.68318 13.0402 8.6905 13.4086 8.71002 13.4086C8.72223 13.4086 8.72711 13.3964 8.71735 13.3793C8.70758 13.3623 8.71002 13.3598 8.72955 13.3696C8.74419 13.3793 8.90524 13.3037 9.09313 13.1988C9.42743 13.0084 10.2986 12.5765 10.6231 12.4374C10.7183 12.3984 10.9916 12.2813 11.2332 12.1763C12.0165 11.8396 12.8339 11.5077 13.6733 11.1856C14.2858 10.9489 14.8495 10.7318 15.2619 10.5707L15.4595 10.4926L15.4766 10.2022C15.4839 10.0412 15.4913 9.16274 15.4913 8.25011C15.4913 7.33505 15.5083 5.72698 15.5279 4.67283C15.5474 3.61868 15.5645 2.68898 15.5645 2.60358V2.44985L15.6694 2.40348C15.9744 2.26927 17.0603 2.06186 18.029 1.95449C19.1564 1.8276 20.5619 1.82272 21.6649 1.94229C23.0631 2.09358 24.3295 2.41812 25.3422 2.88907C25.5179 2.9696 25.6765 3.03792 25.6887 3.03792C25.7204 3.03792 25.8083 2.86467 25.9962 2.44008C26.1499 2.0887 26.1694 2.05698 26.2036 2.11066C26.2353 2.15947 26.3915 2.53769 26.5355 2.90372C26.7966 3.57964 26.8746 3.68701 27.492 4.23116C28.3314 4.96565 28.8048 5.55861 29.2294 6.40535C29.6808 7.30333 30.0103 8.52829 30.1201 9.71177C30.2494 11.1027 30.2128 12.2813 30.0078 13.3476C29.7492 14.6824 29.4319 15.5413 28.9122 16.3173C28.5071 16.9225 28.1362 17.3104 27.4408 17.8595L27.1284 18.1035L27.1431 18.1669C27.2089 18.4207 27.1772 18.7575 27.0406 19.3016C26.7502 20.4656 26.3744 21.5466 25.9693 22.386C25.8839 22.5666 25.8156 22.7154 25.818 22.7179C25.8229 22.7203 26.0133 22.7862 26.2402 22.8618C27.1187 23.1595 27.8434 23.5182 28.6072 24.0307C30.4763 25.2825 31.6964 27.1541 32.1698 29.4844C32.3772 30.5117 32.4407 31.3487 32.4187 32.7713C32.4041 33.7523 32.3845 33.9963 32.2796 34.6137C31.9966 36.2778 31.511 37.4442 30.652 38.5301C30.3543 38.9083 29.7394 39.5135 29.388 39.777C27.9312 40.8678 26.0938 41.5169 23.8244 41.7438C23.3925 41.7853 20.9841 41.7853 20.5912 41.7438C19.01 41.5706 17.8485 41.1704 17.1432 40.5555C16.5356 40.0259 16.0769 39.1036 15.8475 37.9567C15.6767 37.1026 15.623 36.2827 15.5742 33.906C15.5645 33.457 15.5498 33.069 15.5425 33.0471L15.5279 33.0056L15.1374 33.191C14.6177 33.4351 14.1662 33.6278 13.6562 33.8182C12.2336 34.3501 11.2088 34.6429 9.68853 34.9553C8.74419 35.1481 8.62706 35.1749 8.61242 35.1871C8.60754 35.1944 8.5929 35.5702 8.58314 36.0241C8.56361 36.9123 8.55141 37.1661 8.50017 37.9323C8.46357 38.4301 8.45137 38.557 8.37816 39.0621C8.30008 39.6233 8.11706 40.3188 7.95357 40.675C7.79008 41.0386 7.50946 41.3949 7.21176 41.6194C6.80181 41.9293 6.09172 42.1879 5.32063 42.3026L5.12054 42.3319L5.13518 42.3831C5.14494 42.4124 5.25963 42.6491 5.39139 42.9102C5.63297 43.3909 5.86967 43.7984 5.94531 43.8594C5.99168 43.896 6.35038 43.8863 7.32889 43.8253C7.63879 43.8058 8.21955 43.7716 8.62218 43.7521C9.02481 43.7326 9.56408 43.7033 9.81786 43.6911C11.8359 43.5886 15.1643 43.5935 17.5166 43.7033C17.9387 43.7228 18.5829 43.7496 18.9441 43.7643C19.3077 43.7765 19.681 43.7936 19.7737 43.8009C21.1622 43.9034 24.0318 43.9326 25.0201 43.8546C26.821 43.7106 28.1753 43.5032 29.754 43.1298C30.6886 42.9078 31.8794 42.5076 32.7969 42.1025C34.2732 41.4534 35.4396 40.7189 36.5109 39.76C38.0262 38.4081 39.1633 36.5487 39.6953 34.5649C40.2956 32.3199 40.1858 29.5235 39.422 27.5494C39.0413 26.5709 38.4923 25.6338 37.8676 24.9018C37.443 24.404 36.7476 23.7525 36.1961 23.3377C35.7739 23.018 35.076 22.5666 34.5758 22.2859C33.1727 21.4978 31.2011 20.7999 29.2904 20.4143C28.9049 20.3363 28.6682 20.2728 28.6682 20.2484C28.6682 20.1874 28.9561 20.0508 29.6516 19.7799C30.3885 19.492 30.6032 19.3968 31.3524 19.021C32.6286 18.3841 33.446 17.84 34.366 17.0176C35.9325 15.6194 36.8574 14.0382 37.2917 12.0177C37.4137 11.4492 37.4577 11.027 37.4699 10.2901C37.4991 8.5649 37.2063 7.17156 36.5231 5.79531C36.1082 4.96077 35.6446 4.32633 34.9492 3.64553C33.7462 2.46937 32.0014 1.51526 29.9737 0.927182C28.2802 0.436709 26.3134 0.139009 24.105 0.0365222C23.3681 0.00235994 20.3594 -0.0122811 19.2369 0.0121206Z" fill="#484C44"/>
<path d="M25.9498 4.60694C25.4715 5.41219 24.8371 6.19549 24.0294 6.97878C22.9801 7.99633 21.8357 8.81622 20.213 9.71176C19.7762 9.95578 18.4585 10.6049 18.029 10.7928C17.8753 10.8586 17.5727 10.9928 17.358 11.088C17.1432 11.1856 16.9065 11.2905 16.8333 11.3223C16.6406 11.4077 15.806 11.7591 15.2228 12.0006C14.7299 12.2032 14.5054 12.2935 13.3195 12.762C12.4874 13.089 12.1897 13.211 11.7822 13.3842C7.38257 15.2631 4.25183 17.5593 2.40706 20.2655C2.29238 20.4338 2.10692 20.7242 1.99711 20.9121C1.79214 21.2537 1.29679 22.2103 1.1943 22.4616C1.16258 22.5348 1.09913 22.6886 1.05277 22.8032C1.00397 22.9179 0.906359 23.1815 0.835594 23.3889C-0.0965499 26.0609 -0.2454 28.9549 0.371962 32.3443C0.47689 32.9202 0.554975 33.2667 0.730667 33.9548C0.825834 34.3233 0.91368 34.6698 0.928321 34.7235C0.940522 34.7771 0.972244 34.8967 1.00153 34.987L1.05033 35.1529L1.10401 35.1188C1.18454 35.0651 1.23334 34.8772 1.34071 34.2257C1.62377 32.4712 1.86779 31.5805 2.42658 30.2628C3.09519 28.684 3.8736 27.3395 4.9424 25.9047C6.53827 23.7647 8.26835 22.1468 10.8622 20.368C11.6333 19.8384 12.4508 19.3382 13.4537 18.7843C13.7099 18.6428 14.198 18.367 14.5396 18.1718C15.4254 17.6691 15.4937 17.6301 15.8207 17.4544C16.3038 17.1909 17.8826 16.4003 18.0754 16.3246L18.2535 16.2538L18.2877 16.3002C18.3292 16.3563 18.3096 16.3832 18.1144 16.5174C17.9461 16.6321 16.8602 17.3251 16.2111 17.7301C14.6421 18.7087 13.4317 19.5627 12.0506 20.6705C10.2717 22.0932 9.36642 22.9423 8.1439 24.3283C6.88233 25.7632 5.69885 27.4737 4.9912 28.8939C3.94925 30.9802 3.35385 32.947 3.14399 35.0041C3.04639 35.9679 3.05371 37.5687 3.15863 37.6541C3.18304 37.6736 3.18548 37.7005 3.1684 37.7639C3.15375 37.8103 3.14399 37.8786 3.14643 37.9201C3.14643 37.9591 3.20012 37.7907 3.26356 37.5418C3.62471 36.1436 3.96145 35.5433 4.66666 35.0431C5.33038 34.5697 6.0844 34.3086 7.73151 33.9816C7.93893 33.9402 8.39036 33.8499 8.73198 33.784C10.7158 33.3887 12.1629 32.9543 13.8856 32.2369C14.7787 31.8636 15.9988 31.256 16.9187 30.7216C19.11 29.4527 20.9182 27.869 22.2749 26.0365C22.5238 25.6997 22.9533 25.0604 23.2315 24.609C24.0489 23.2864 24.7175 21.9345 25.247 20.5339C25.3934 20.1508 25.5399 19.7701 25.6131 19.5871C25.6423 19.5188 25.6594 19.4602 25.6521 19.4602C25.6448 19.4602 25.5057 19.4944 25.3422 19.5359C24.942 19.6359 24.5906 19.7506 24.1075 19.9409C23.7341 20.0873 23.4364 20.1923 23.3925 20.1923C23.3413 20.1923 23.3925 20.1386 23.595 19.9849C24.4003 19.3699 24.6272 19.1308 25.0372 18.4573C25.5472 17.6179 26.0352 16.4759 26.3134 15.4632C26.555 14.5897 26.7209 13.5038 26.8161 12.1641C26.8576 11.6127 26.8576 9.64344 26.8185 9.01632C26.7233 7.50097 26.5647 6.19061 26.3378 5.00225C26.2231 4.39952 26.1987 4.28972 26.1841 4.26532C26.1743 4.25067 26.0694 4.4044 25.9498 4.60694Z" fill="#849975"/>
</g>
<defs>
<clipPath id="clip0_63_41">
<rect width="256.794" height="43.9379" fill="white"/>
</clipPath>
</defs>
</svg>
