<svg width="41" height="44" viewBox="0 0 41 44" fill="none" xmlns="http://www.w3.org/2000/svg">
<g clip-path="url(#clip0_63_73)">
<path d="M19.2369 0.0121206C18.3438 0.0316419 18.0583 0.0414026 15.6133 0.134129C13.4049 0.217094 11.7724 0.239056 9.11021 0.221975C7.74128 0.214654 6.10636 0.197573 5.47436 0.185372C4.8448 0.173171 4.17619 0.168291 3.99318 0.175612L3.65888 0.190253L3.63935 0.3025C3.60519 0.495273 3.61495 1.36641 3.65155 1.40789C3.6906 1.4567 3.82237 1.4811 4.6203 1.58603C5.41336 1.69339 5.87455 1.78612 6.32354 1.93253C7.5363 2.33028 8.14147 3.0184 8.40012 4.29461C8.52945 4.92905 8.58314 5.48541 8.61242 6.52736C8.6417 7.64251 8.68074 10.7318 8.68318 12.2178C8.68318 13.0402 8.6905 13.4086 8.71002 13.4086C8.72223 13.4086 8.72711 13.3964 8.71735 13.3793C8.70758 13.3623 8.71002 13.3598 8.72955 13.3696C8.74419 13.3793 8.90524 13.3037 9.09313 13.1988C9.42743 13.0084 10.2986 12.5765 10.6231 12.4374C10.7183 12.3984 10.9916 12.2813 11.2332 12.1763C12.0165 11.8396 12.8339 11.5077 13.6733 11.1856C14.2858 10.9489 14.8495 10.7318 15.2619 10.5707L15.4595 10.4926L15.4766 10.2022C15.4839 10.0412 15.4913 9.16274 15.4913 8.25011C15.4913 7.33505 15.5083 5.72698 15.5279 4.67283C15.5474 3.61868 15.5645 2.68898 15.5645 2.60358V2.44985L15.6694 2.40348C15.9744 2.26927 17.0603 2.06186 18.029 1.95449C19.1564 1.8276 20.5619 1.82272 21.6649 1.94229C23.0631 2.09358 24.3295 2.41812 25.3422 2.88907C25.5179 2.9696 25.6765 3.03792 25.6887 3.03792C25.7204 3.03792 25.8083 2.86467 25.9962 2.44008C26.1499 2.0887 26.1694 2.05698 26.2036 2.11066C26.2353 2.15947 26.3915 2.53769 26.5355 2.90372C26.7966 3.57964 26.8746 3.68701 27.492 4.23116C28.3314 4.96565 28.8048 5.55861 29.2294 6.40535C29.6808 7.30333 30.0103 8.52829 30.1201 9.71177C30.2494 11.1027 30.2128 12.2813 30.0078 13.3476C29.7492 14.6824 29.4319 15.5413 28.9122 16.3173C28.5071 16.9225 28.1362 17.3104 27.4408 17.8595L27.1284 18.1035L27.1431 18.1669C27.2089 18.4207 27.1772 18.7575 27.0406 19.3016C26.7502 20.4656 26.3744 21.5466 25.9693 22.386C25.8839 22.5666 25.8156 22.7154 25.818 22.7179C25.8229 22.7203 26.0133 22.7862 26.2402 22.8618C27.1187 23.1595 27.8434 23.5182 28.6072 24.0307C30.4763 25.2825 31.6964 27.1541 32.1698 29.4844C32.3772 30.5117 32.4407 31.3487 32.4187 32.7713C32.4041 33.7523 32.3845 33.9963 32.2796 34.6137C31.9966 36.2778 31.511 37.4442 30.652 38.5301C30.3543 38.9083 29.7394 39.5135 29.388 39.777C27.9312 40.8678 26.0938 41.5169 23.8244 41.7438C23.3925 41.7853 20.9841 41.7853 20.5912 41.7438C19.01 41.5706 17.8485 41.1704 17.1432 40.5555C16.5356 40.0259 16.0769 39.1036 15.8475 37.9567C15.6767 37.1026 15.623 36.2827 15.5742 33.906C15.5645 33.457 15.5498 33.069 15.5425 33.0471L15.5279 33.0056L15.1374 33.191C14.6177 33.4351 14.1662 33.6278 13.6562 33.8182C12.2336 34.3501 11.2088 34.6429 9.68853 34.9553C8.74419 35.1481 8.62706 35.1749 8.61242 35.1871C8.60754 35.1944 8.5929 35.5702 8.58314 36.0241C8.56361 36.9123 8.55141 37.1661 8.50017 37.9323C8.46357 38.4301 8.45137 38.557 8.37816 39.0621C8.30008 39.6233 8.11706 40.3188 7.95357 40.675C7.79008 41.0386 7.50946 41.3949 7.21176 41.6194C6.80181 41.9293 6.09172 42.1879 5.32063 42.3026L5.12054 42.3319L5.13518 42.3831C5.14494 42.4124 5.25963 42.6491 5.39139 42.9102C5.63297 43.3909 5.86967 43.7984 5.94531 43.8594C5.99168 43.896 6.35038 43.8863 7.32889 43.8253C7.63879 43.8058 8.21955 43.7716 8.62218 43.7521C9.02481 43.7326 9.56408 43.7033 9.81786 43.6911C11.8359 43.5886 15.1643 43.5935 17.5166 43.7033C17.9387 43.7228 18.5829 43.7496 18.9441 43.7643C19.3077 43.7765 19.681 43.7936 19.7737 43.8009C21.1622 43.9034 24.0318 43.9326 25.0201 43.8546C26.821 43.7106 28.1753 43.5032 29.754 43.1298C30.6886 42.9078 31.8794 42.5076 32.7969 42.1025C34.2732 41.4534 35.4396 40.7189 36.5109 39.76C38.0262 38.4081 39.1633 36.5487 39.6953 34.5649C40.2956 32.3199 40.1858 29.5235 39.422 27.5494C39.0413 26.5709 38.4923 25.6338 37.8676 24.9018C37.443 24.404 36.7476 23.7525 36.1961 23.3377C35.7739 23.018 35.076 22.5666 34.5758 22.2859C33.1727 21.4978 31.2011 20.7999 29.2904 20.4143C28.9049 20.3363 28.6682 20.2728 28.6682 20.2484C28.6682 20.1874 28.9561 20.0508 29.6516 19.7799C30.3885 19.492 30.6032 19.3968 31.3524 19.021C32.6286 18.3841 33.446 17.84 34.366 17.0176C35.9325 15.6194 36.8574 14.0382 37.2917 12.0177C37.4137 11.4492 37.4577 11.027 37.4699 10.2901C37.4991 8.5649 37.2063 7.17156 36.5231 5.79531C36.1082 4.96077 35.6446 4.32633 34.9492 3.64553C33.7462 2.46937 32.0014 1.51526 29.9737 0.927182C28.2802 0.436709 26.3134 0.139009 24.105 0.0365222C23.3681 0.00235994 20.3594 -0.0122811 19.2369 0.0121206Z" fill="#484C44"/>
<path d="M25.9498 4.60694C25.4715 5.41219 24.8371 6.19549 24.0294 6.97878C22.9801 7.99633 21.8357 8.81622 20.213 9.71176C19.7762 9.95578 18.4585 10.6049 18.029 10.7928C17.8753 10.8586 17.5727 10.9928 17.358 11.088C17.1432 11.1856 16.9065 11.2905 16.8333 11.3223C16.6406 11.4077 15.806 11.7591 15.2228 12.0006C14.7299 12.2032 14.5054 12.2935 13.3195 12.762C12.4874 13.089 12.1897 13.211 11.7822 13.3842C7.38257 15.2631 4.25183 17.5593 2.40706 20.2655C2.29238 20.4338 2.10692 20.7242 1.99711 20.9121C1.79214 21.2537 1.29679 22.2103 1.1943 22.4616C1.16258 22.5348 1.09913 22.6886 1.05277 22.8032C1.00397 22.9179 0.906359 23.1815 0.835594 23.3889C-0.0965499 26.0609 -0.2454 28.9549 0.371962 32.3443C0.47689 32.9202 0.554975 33.2667 0.730667 33.9548C0.825834 34.3233 0.91368 34.6698 0.928321 34.7235C0.940522 34.7771 0.972244 34.8967 1.00153 34.987L1.05033 35.1529L1.10401 35.1188C1.18454 35.0651 1.23334 34.8772 1.34071 34.2257C1.62377 32.4712 1.86779 31.5805 2.42658 30.2628C3.09519 28.684 3.8736 27.3395 4.9424 25.9047C6.53827 23.7647 8.26835 22.1468 10.8622 20.368C11.6333 19.8384 12.4508 19.3382 13.4537 18.7843C13.7099 18.6428 14.198 18.367 14.5396 18.1718C15.4254 17.6691 15.4937 17.6301 15.8207 17.4544C16.3038 17.1909 17.8826 16.4003 18.0754 16.3246L18.2535 16.2538L18.2877 16.3002C18.3292 16.3563 18.3096 16.3832 18.1144 16.5174C17.9461 16.6321 16.8602 17.3251 16.2111 17.7301C14.6421 18.7087 13.4317 19.5627 12.0506 20.6705C10.2717 22.0932 9.36642 22.9423 8.1439 24.3283C6.88233 25.7632 5.69885 27.4737 4.9912 28.8939C3.94925 30.9802 3.35385 32.947 3.14399 35.0041C3.04639 35.9679 3.05371 37.5687 3.15863 37.6541C3.18304 37.6736 3.18548 37.7005 3.1684 37.7639C3.15375 37.8103 3.14399 37.8786 3.14643 37.9201C3.14643 37.9591 3.20012 37.7907 3.26356 37.5418C3.62471 36.1436 3.96145 35.5433 4.66666 35.0431C5.33038 34.5697 6.0844 34.3086 7.73151 33.9816C7.93893 33.9402 8.39036 33.8499 8.73198 33.784C10.7158 33.3887 12.1629 32.9543 13.8856 32.2369C14.7787 31.8636 15.9988 31.256 16.9187 30.7216C19.11 29.4527 20.9182 27.869 22.2749 26.0365C22.5238 25.6997 22.9533 25.0604 23.2315 24.609C24.0489 23.2864 24.7175 21.9345 25.247 20.5339C25.3934 20.1508 25.5399 19.7701 25.6131 19.5871C25.6423 19.5188 25.6594 19.4602 25.6521 19.4602C25.6448 19.4602 25.5057 19.4944 25.3422 19.5359C24.942 19.6359 24.5906 19.7506 24.1075 19.9409C23.7341 20.0873 23.4364 20.1923 23.3925 20.1923C23.3413 20.1923 23.3925 20.1386 23.595 19.9849C24.4003 19.3699 24.6272 19.1308 25.0372 18.4573C25.5472 17.6179 26.0352 16.4759 26.3134 15.4632C26.555 14.5897 26.7209 13.5038 26.8161 12.1641C26.8576 11.6127 26.8576 9.64344 26.8185 9.01632C26.7233 7.50097 26.5647 6.19061 26.3378 5.00225C26.2231 4.39952 26.1987 4.28972 26.1841 4.26532C26.1743 4.25067 26.0694 4.4044 25.9498 4.60694Z" fill="#484C44"/>
</g>
<defs>
<clipPath id="clip0_63_73">
<rect width="40.0802" height="43.899" fill="white"/>
</clipPath>
</defs>
</svg>
